name rise49.25peak52.1432fall72.8391.mot
datacolumns 19
datarows 15
range 1.76832600000000 1.79166300000000
endheader
time	ground_force1_vx	ground_force1_vy	ground_force1_vz	ground_force1_px	ground_force1_py	ground_force1_pz	ground_force2_vx	ground_force2_vy	ground_force2_vz	ground_force2_px	ground_force2_py	ground_force2_pz	ground_torque1_x	ground_torque1_y	ground_torque1_z	ground_torque2_x	ground_torque2_y	ground_torque2_z	
1.76832600000000	66.23026200000000	771.05790000000002	62.69707600000000	0.37076100000000	0.00000000000000	0.11138900000000	0.00000000000000	0.00000000000000	0.00000000000000	0.00000000000000	0.00000000000000	0.00000000000000	0.00000000000000	30.10359000000000	0.00000000000000	0.00000000000000	0.00000000000000	0.00000000000000	
1.76999100000000	65.38619400000000	772.50157100000001	62.66618500000000	0.36941800000000	0.00000000000000	0.11137800000000	0.00000000000000	0.00000000000000	0.00000000000000	0.00000000000000	0.00000000000000	0.00000000000000	0.00000000000000	30.09829200000000	0.00000000000000	0.00000000000000	0.00000000000000	0.00000000000000	
1.77166200000000	64.54548699999999	773.85087099999998	62.62911500000000	0.36809300000000	0.00000000000000	0.11136400000000	0.00000000000000	0.00000000000000	0.00000000000000	0.00000000000000	0.00000000000000	0.00000000000000	0.00000000000000	30.09156200000000	0.00000000000000	0.00000000000000	0.00000000000000	0.00000000000000	
1.77334300000000	63.70880100000000	775.10474399999998	62.58584400000000	0.36678600000000	0.00000000000000	0.11134700000000	0.00000000000000	0.00000000000000	0.00000000000000	0.00000000000000	0.00000000000000	0.00000000000000	0.00000000000000	30.08338800000000	0.00000000000000	0.00000000000000	0.00000000000000	0.00000000000000	
1.77499600000000	62.87672800000000	776.26221599999997	62.53630200000000	0.36549800000000	0.00000000000000	0.11132700000000	0.00000000000000	0.00000000000000	0.00000000000000	0.00000000000000	0.00000000000000	0.00000000000000	0.00000000000000	30.07372200000000	0.00000000000000	0.00000000000000	0.00000000000000	0.00000000000000	
1.77665900000000	62.04979800000000	777.32241699999997	62.48037500000000	0.36423000000000	0.00000000000000	0.11130400000000	0.00000000000000	0.00000000000000	0.00000000000000	0.00000000000000	0.00000000000000	0.00000000000000	0.00000000000000	30.06248300000000	0.00000000000000	0.00000000000000	0.00000000000000	0.00000000000000	
1.77832600000000	61.22848000000000	778.28458899999998	62.41791100000000	0.36298300000000	0.00000000000000	0.11127800000000	0.00000000000000	0.00000000000000	0.00000000000000	0.00000000000000	0.00000000000000	0.00000000000000	0.00000000000000	30.04956000000000	0.00000000000000	0.00000000000000	0.00000000000000	0.00000000000000	
1.77999000000000	60.41318100000000	779.14810799999998	62.34872400000000	0.36175700000000	0.00000000000000	0.11124900000000	0.00000000000000	0.00000000000000	0.00000000000000	0.00000000000000	0.00000000000000	0.00000000000000	0.00000000000000	30.03481500000000	0.00000000000000	0.00000000000000	0.00000000000000	0.00000000000000	
1.78165800000000	59.60425800000000	779.91249300000004	62.27259900000000	0.36055300000000	0.00000000000000	0.11121700000000	0.00000000000000	0.00000000000000	0.00000000000000	0.00000000000000	0.00000000000000	0.00000000000000	0.00000000000000	30.01808600000000	0.00000000000000	0.00000000000000	0.00000000000000	0.00000000000000	
1.78333100000000	58.80201100000000	780.57742099999996	62.18929700000000	0.35937000000000	0.00000000000000	0.11118200000000	0.00000000000000	0.00000000000000	0.00000000000000	0.00000000000000	0.00000000000000	0.00000000000000	0.00000000000000	29.99919100000000	0.00000000000000	0.00000000000000	0.00000000000000	0.00000000000000	
1.78499400000000	58.00669600000000	781.14273600000001	62.09855900000000	0.35820900000000	0.00000000000000	0.11114400000000	0.00000000000000	0.00000000000000	0.00000000000000	0.00000000000000	0.00000000000000	0.00000000000000	0.00000000000000	29.97792800000000	0.00000000000000	0.00000000000000	0.00000000000000	0.00000000000000	
1.78666400000000	57.21851900000000	781.60846300000003	62.00011400000000	0.35707000000000	0.00000000000000	0.11110200000000	0.00000000000000	0.00000000000000	0.00000000000000	0.00000000000000	0.00000000000000	0.00000000000000	0.00000000000000	29.95408600000000	0.00000000000000	0.00000000000000	0.00000000000000	0.00000000000000	
1.78833000000000	56.43764900000000	781.97481400000004	61.89368100000000	0.35595300000000	0.00000000000000	0.11105800000000	0.00000000000000	0.00000000000000	0.00000000000000	0.00000000000000	0.00000000000000	0.00000000000000	0.00000000000000	29.92743800000000	0.00000000000000	0.00000000000000	0.00000000000000	0.00000000000000	
1.78999200000000	55.66421300000000	782.24219500000004	61.77897400000000	0.35485800000000	0.00000000000000	0.11101000000000	0.00000000000000	0.00000000000000	0.00000000000000	0.00000000000000	0.00000000000000	0.00000000000000	0.00000000000000	29.89775200000000	0.00000000000000	0.00000000000000	0.00000000000000	0.00000000000000	
1.79166300000000	54.89830700000000	782.41121899999996	61.65570800000000	0.35378400000000	0.00000000000000	0.11095800000000	0.00000000000000	0.00000000000000	0.00000000000000	0.00000000000000	0.00000000000000	0.00000000000000	0.00000000000000	29.86478900000000	0.00000000000000	0.00000000000000	0.00000000000000	0.00000000000000	
